<?xml version="1.0" encoding="UTF-8"?>
<svg version="1.1" viewBox="0 0 140 30" xmlns="http://www.w3.org/2000/svg" xmlns:xlink="http://www.w3.org/1999/xlink">
<title>Locus</title>
<desc>Created with Sketch.</desc>
<defs>
<path id="c" d="m119.75 7.5773c0 9.9034 17.332 5.3554 17.332 13.439 0 2.8304-2.0163 5.559-7.5081 5.559-3.9795 0-7.2047-1.971-8.9671-3.9917l-1.7141 1.9698c2.1662 2.5771 5.8955 4.4462 10.632 4.4462 7.305 0 10.479-3.6874 10.479-8.0331 0-10.51-17.383-6.5178-17.383-13.439 0-2.931 2.9242-5.102 6.7018-5.102 3.1744 0 6.2473 1.0594 8.3132 3.485l1.6126-1.9201c-2.2678-2.4256-5.5425-3.9905-9.9258-3.9905-5.2899 0-9.5728 3.0316-9.5728 7.5773zm-64.19 6.8718c0 8.5894 6.1847 14.551 14.122 14.551 4.4312 0 7.7911-1.9201 10.323-5.1529l-2.1426-1.3649c-1.6554 2.4765-4.8693 4.0426-8.1801 4.0426-6.3798 0-11.346-5.0523-11.346-12.076 0-7.0221 4.9662-11.974 11.346-11.974 3.3108 0 6.3798 1.5152 8.1801 4.0414l2.0935-1.3637c-2.4346-3.1832-5.8424-5.1529-10.274-5.1529-7.9371 0-14.122 5.9106-14.122 14.449zm51.736-13.334v16.771c0 5.4079-3.0076 8.6826-8.4281 8.6826-5.4205 0-8.3749-3.2747-8.3749-8.6826v-16.771h-2.7108v16.87c0 6.7483 3.7453 11.015 11.086 11.015 7.3428 0 11.137-4.2663 11.137-11.015v-16.87h-2.7085zm-107.29 0v27.885h16.667v-2.4838h-13.905v-25.401h-2.7615z"/>
<path id="b" d="m0 15.001c0 8.2836 6.7157 14.999 15.001 14.999 8.2837 0 14.999-6.7158 14.999-14.999 0-8.2848-6.7157-15.001-14.999-15.001-8.2849 0-15.001 6.7158-15.001 15.001z"/>
</defs>
<g fill="none" fill-rule="evenodd">
<g transform="translate(-60 -30)">
<rect width="1440" height="90"/>
<g transform="translate(60 30)">
<mask id="d" fill="white">
<use xlink:href="#c"/>
</mask>
<polygon points="-2.2222 30.115 141.11 30.115 141.11 0 -2.2222 0" fill="#fff" mask="url(#d)"/>
<g transform="translate(20)">
<mask id="a" fill="white">
<use xlink:href="#b"/>
</mask>
<polygon points="-2.2222 32.222 31.111 32.222 31.111 -1.1111 -2.2222 -1.1111" fill="#0957A2" mask="url(#a)"/>
<path d="m11.849 9.1419c-0.48836 0.4856-0.98862 0.99743-1.5019 1.536-4.2636 4.4851-7.6608 9.1215-9.1511 12.443-0.20771 0.46296-0.019742 1.0156 0.41984 1.2344s0.96431 0.020792 1.172-0.44217c1.3904-3.099 4.6711-7.5763 8.8026-11.923 0.50164-0.52631 0.99065-1.0266 1.4672-1.5005 0.35352-0.35152 0.36953-0.93831 0.035758-1.3106-0.33377-0.37232-0.89092-0.38918-1.2444-0.037659z" fill="#FEFEFE" fill-rule="nonzero" mask="url(#a)"/>
<path d="m1.3755 28.24c0.92851 0.98628 2.4786 0.79432 4.5269-0.21091 1.6797-0.82561 3.738-2.2379 5.973-4.0925 0.39238-0.3256 0.46235-0.92791 0.15626-1.3453-0.30608-0.4174-0.8723-0.49182-1.2647-0.16623-2.1347 1.7714-4.0825 3.1078-5.62 3.8635-1.4111 0.69256-2.3022 0.8029-2.498 0.59486-0.35214-0.37405-0.92267-0.37362-1.2743 9.757e-4 -0.35164 0.37459-0.35123 0.98149 9.1727e-4 1.3555z" fill="#FEFEFE" fill-rule="nonzero" mask="url(#a)"/>
<path d="m17.048 19.746c0.46179-0.45902 0.92465-0.93033 1.3886-1.4139 4.3555-4.553 7.8055-9.2548 9.2605-12.577 0.20341-0.46441 0.0085741-1.0135-0.43517-1.2263s-0.96837-0.0089733-1.1718 0.45543c-1.3531 3.0893-4.6832 7.6278-8.9019 12.038-0.45322 0.47242-0.90606 0.93353-1.3576 1.3824-0.35394 0.35182-0.36835 0.93731-0.032179 1.3077 0.33617 0.37042 0.89562 0.3855 1.2496 0.033677z" fill="#FEFEFE" fill-rule="nonzero" mask="url(#a)"/>
<path d="m23.16 1.191c-1.7184 0.76535-3.8388 2.1046-6.143 3.8748-0.39598 0.30421-0.46642 0.86675-0.15732 1.2565s0.88067 0.45905 1.2767 0.15484c2.1996-1.6898 4.2045-2.9561 5.7737-3.655 0.45765-0.20384 0.66076-0.73422 0.45364-1.1846-0.20711-0.45042-0.74601-0.65031-1.2037-0.44647z" fill="#FEFEFE" fill-rule="nonzero" mask="url(#a)"/>
<path d="m20.079-1.105c-4.5305 0.50205-9.6623 3.0849-13.93 7.0804-0.50896 0.47647-1.0018 0.97013-1.4752 1.4768-0.33616 0.35978-0.29757 0.90692 0.086187 1.2221s0.96737 0.27898 1.3035-0.080802c0.4465-0.47787 0.91124-0.94339 1.3909-1.3925 3.9911-3.7363 8.7527-6.1329 12.842-6.586 0.50664-0.056144 0.86881-0.48671 0.80893-0.9617-0.059886-0.47499-0.51915-0.81453-1.0258-0.75838z" fill="#FEFEFE" fill-rule="nonzero" mask="url(#a)"/>
<path d="m0.75989 12.691c-1.0019 2.1497-1.6393 4.3089-1.8648 6.3229-0.053763 0.48027 0.24723 0.91885 0.67229 0.9796 0.42506 0.060747 0.81322-0.27934 0.86698-0.75962 0.2009-1.7947 0.77949-3.7545 1.6983-5.726 0.19963-0.42834 0.054147-0.95843-0.32495-1.184s-0.84824-0.061181-1.0479 0.36716z" fill="#FEFEFE" fill-rule="nonzero" mask="url(#a)"/>
<path d="m9.8825 29.996c4.445-0.40898 9.5277-2.9154 13.826-6.8877 0.56623-0.52256 1.1011-1.0532 1.6046-1.5925 0.34137-0.36567 0.31936-0.9367-0.049155-1.2754s-0.94399-0.31689-1.2854 0.048775c-0.47233 0.50595-0.97531 1.0049-1.5094 1.4978-4.0208 3.7158-8.7386 6.0422-12.755 6.4117-0.50019 0.046022-0.86807 0.48568-0.82169 0.982s0.48946 0.86136 0.98965 0.81534z" fill="#FEFEFE" fill-rule="nonzero" mask="url(#a)"/>
<path d="m28.13 15.093c1.0196-2.1654 1.6584-4.3379 1.8651-6.354 0.048566-0.47362-0.25715-0.90136-0.68283-0.95539s-0.81014 0.2861-0.85871 0.75972c-0.18387 1.7931-0.76326 3.7634-1.698 5.7486-0.19882 0.42226-0.052323 0.94388 0.3272 1.1651s0.84836 0.058214 1.0472-0.36404z" fill="#FEFEFE" fill-rule="nonzero" mask="url(#a)"/>
</g>
</g>
</g>
</g>
</svg>
